<svg width="170" height="118" viewBox="0 0 170 118" fill="none" xmlns="http://www.w3.org/2000/svg">
<g clip-path="url(#clip0_1_3)">
<path d="M105.867 4.91862C103.398 5.19914 101.335 4.49595 99.3844 3.6581C99.1038 3.53841 98.827 3.41498 98.5502 3.29155C98.4885 3.26349 98.4268 3.23544 98.365 3.20926C95.3032 1.84214 92.232 0.55919 88.6071 0.18328C85.1412 -0.175797 81.4565 -0.0617154 77.5081 0.994945C74.1264 1.90199 70.6605 3.54215 67.3517 5.88925C68.9509 5.1393 70.5576 4.54458 72.1456 4.11443C76.0847 3.04842 79.7582 2.92499 83.2128 3.27658C86.8265 3.64314 89.8846 4.91487 92.9334 6.27077C92.9951 6.29882 93.0568 6.325 93.1185 6.35306C93.3935 6.47462 93.6703 6.59805 93.949 6.71587C95.8924 7.54624 97.9479 8.24382 100.409 7.95768C103.155 7.63788 106.153 6.1305 109.025 4.10508C107.951 4.51465 106.892 4.80079 105.869 4.91675L105.867 4.91862Z" fill="url(#paint0_linear_1_3)"/>
<path d="M105.905 77.0352C103.436 77.3158 101.373 76.6126 99.4218 75.7747C99.1413 75.655 98.8644 75.5316 98.5876 75.4082C98.5259 75.3801 98.4642 75.3521 98.4024 75.3259C95.3406 73.9588 92.2694 72.6758 88.6445 72.2999C85.1786 71.9408 81.4939 72.0549 77.5455 73.1116C74.1638 74.0186 70.6979 75.6588 67.3891 78.0059C68.9883 77.2559 70.595 76.6612 72.183 76.2311C76.1221 75.165 79.7956 75.0416 83.2502 75.3932C86.8639 75.7598 89.922 77.0315 92.9708 78.3874C93.0325 78.4154 93.0942 78.4416 93.1559 78.4697C93.4309 78.5912 93.7077 78.7147 93.9864 78.8325C95.9298 79.6629 97.9854 80.3604 100.447 80.0743C103.193 79.7545 106.191 78.2471 109.062 76.2217C107.988 76.6313 106.93 76.9174 105.907 77.0334L105.905 77.0352Z" fill="url(#paint1_linear_1_3)"/>
<path d="M66.2912 9.04239C65.1876 11.2679 63.4762 12.6182 61.7143 13.802C61.4618 13.9722 61.2074 14.1387 60.9549 14.3033C60.8988 14.3407 60.8408 14.3781 60.7847 14.4136C57.9735 16.2426 55.2296 18.1259 52.9458 20.9668C50.763 23.6823 48.8571 26.8392 47.6039 30.7292C46.5284 34.0619 46.0271 37.8621 46.2011 41.9148C46.4386 40.1643 46.8108 38.4924 47.3121 36.9251C48.5559 33.0389 50.4469 29.8857 52.6147 27.1758C54.8835 24.3406 57.6125 22.4629 60.4069 20.6376C60.463 20.6002 60.5191 20.5647 60.5771 20.5273C60.8296 20.3627 61.0821 20.1962 61.3327 20.0279C63.0853 18.8478 64.7874 17.4994 65.8816 15.2776C67.1029 12.7977 67.4639 9.46319 67.3218 5.95096C67.0842 7.07495 66.7494 8.11851 66.2912 9.04239Z" fill="url(#paint2_linear_1_3)"/>
<path d="M111.215 6.42226C112.616 8.47386 112.958 10.6265 113.128 12.7435C113.153 13.0465 113.173 13.3495 113.194 13.6524C113.197 13.7198 113.203 13.7871 113.207 13.8544C113.429 17.2002 113.729 20.5142 115.09 23.8955C116.39 27.1272 118.214 30.3327 120.993 33.3288C123.374 35.8965 126.446 38.1931 130.065 40.0222C128.655 38.958 127.377 37.8154 126.257 36.6128C123.473 33.628 121.65 30.4374 120.346 27.2207C118.983 23.8562 118.68 20.5572 118.455 17.2282C118.451 17.1609 118.446 17.0936 118.442 17.0263C118.421 16.727 118.401 16.4241 118.375 16.123C118.203 14.0171 117.858 11.8739 116.456 9.83162C114.89 7.55372 112.157 5.60685 109.025 4.01344C109.889 4.77087 110.635 5.57319 111.217 6.42413L111.215 6.42226Z" fill="url(#paint3_linear_1_3)"/>
<path d="M65.0885 75.5129C63.6876 73.4613 63.3453 71.3087 63.1751 69.1916C63.1508 68.8887 63.1302 68.5857 63.1096 68.2827C63.1059 68.2154 63.1003 68.1481 63.0965 68.0807C62.8739 64.735 62.5747 61.421 61.213 58.0397C59.9131 54.808 58.0894 51.6024 55.31 48.6064C52.929 46.0386 49.8577 43.742 46.2385 41.913C47.6488 42.9771 48.9263 44.1198 50.0467 45.3223C52.8298 48.3072 54.6535 51.4977 55.9572 54.7145C57.3207 58.0789 57.6237 61.378 57.8481 64.7069C57.8519 64.7742 57.8575 64.8416 57.8612 64.9089C57.8818 65.2081 57.9024 65.5111 57.9286 65.8122C58.1007 67.918 58.4448 70.0613 59.8476 72.1035C61.4132 74.3814 64.1458 76.3283 67.2788 77.9217C66.4146 77.1643 65.6684 76.362 65.0867 75.511L65.0885 75.5129Z" fill="url(#paint4_linear_1_3)"/>
<path d="M128.974 43.1192C127.886 45.3523 126.184 46.7156 124.429 47.9107C124.177 48.0827 123.924 48.2511 123.674 48.4175C123.617 48.4549 123.561 48.4923 123.503 48.5297C120.705 50.3793 117.974 52.2795 115.709 55.1352C113.545 57.8657 111.662 61.0338 110.433 64.9332C109.38 68.2734 108.905 72.0773 109.107 76.1282C109.333 74.3758 109.694 72.702 110.184 71.131C111.4 67.2354 113.27 64.071 115.421 61.3462C117.671 58.496 120.387 56.5996 123.169 54.7556C123.225 54.7182 123.281 54.6808 123.337 54.6434C123.588 54.4769 123.838 54.3086 124.089 54.1384C125.834 52.9471 127.527 51.5875 128.606 49.3563C129.81 46.869 130.149 43.5307 129.982 40.0203C129.752 41.1462 129.425 42.1916 128.972 43.1174L128.974 43.1192Z" fill="url(#paint5_linear_1_3)"/>
<path d="M2.68778 117.426C1.53935 117.044 0.643422 116.56 0 115.976L0.693923 114.768C1.33922 115.313 2.16968 115.765 3.18531 116.126C4.20282 116.489 5.26521 116.67 6.3725 116.67C7.96235 116.67 9.13697 116.408 9.89262 115.885C10.6483 115.361 11.0261 114.636 11.0261 113.71C11.0261 113.044 10.8185 112.522 10.407 112.139C9.99362 111.757 9.48487 111.473 8.88072 111.293C8.27658 111.112 7.44051 110.921 6.37437 110.719C5.12493 110.499 4.11865 110.256 3.35365 109.996C2.58865 109.734 1.93401 109.311 1.38972 108.726C0.845427 108.142 0.574217 107.336 0.574217 106.309C0.574217 105.062 1.09232 104.03 2.1304 103.214C3.16661 102.399 4.64237 101.991 6.55767 101.991C7.56395 101.991 8.56088 102.133 9.54846 102.414C10.536 102.696 11.3422 103.068 11.965 103.53L11.2711 104.738C10.6258 104.275 9.89075 103.923 9.06589 103.682C8.23917 103.441 7.39374 103.319 6.52774 103.319C5.0576 103.319 3.95031 103.59 3.20589 104.134C2.45959 104.679 2.08738 105.393 2.08738 106.279C2.08738 106.985 2.29874 107.533 2.72145 107.925C3.14604 108.318 3.66414 108.61 4.27764 108.801C4.89113 108.993 5.75339 109.199 6.86068 109.42C8.08954 109.642 9.08086 109.878 9.8365 110.13C10.5922 110.383 11.2318 110.79 11.7555 111.353C12.2793 111.918 12.5411 112.692 12.5411 113.68C12.5411 114.989 11.9968 116.036 10.9101 116.822C9.82154 117.607 8.29154 118 6.31826 118C5.04825 118 3.84183 117.809 2.6934 117.426H2.68778Z" fill="white"/>
<path d="M18.9117 116.973C17.7035 116.289 16.757 115.337 16.0724 114.117C15.3879 112.9 15.0456 111.525 15.0456 109.994C15.0456 108.462 15.3879 107.059 16.0724 105.84C16.757 104.622 17.7035 103.676 18.9117 103.001C20.12 102.326 21.4892 101.989 23.021 101.989C24.291 101.989 25.4432 102.236 26.4813 102.73C27.5175 103.224 28.3592 103.944 29.0026 104.89L27.886 105.705C27.3211 104.92 26.6216 104.331 25.7855 103.938C24.9494 103.545 24.0292 103.349 23.021 103.349C21.7922 103.349 20.6886 103.626 19.7123 104.179C18.7359 104.733 17.9709 105.513 17.4154 106.521C16.8618 107.527 16.5849 108.686 16.5849 109.996C16.5849 111.305 16.8618 112.462 17.4154 113.47C17.969 114.477 18.734 115.258 19.7123 115.812C20.6886 116.365 21.7903 116.642 23.021 116.642C24.0273 116.642 24.9494 116.446 25.7855 116.053C26.6216 115.66 27.3211 115.071 27.886 114.288L29.0026 115.103C28.3573 116.051 27.5175 116.771 26.4813 117.263C25.4432 117.757 24.291 118.004 23.021 118.004C21.491 118.004 20.1219 117.661 18.9117 116.977V116.973Z" fill="white"/>
<path d="M37.2493 102.909C38.2761 102.296 39.5237 101.989 40.9957 101.989V103.47L40.6329 103.441C38.8803 103.441 37.5111 103.99 36.5236 105.086C35.536 106.184 35.0441 107.71 35.0441 109.663V117.878H33.5328V102.111H34.9823V105.554C35.4649 104.406 36.2206 103.525 37.2474 102.909H37.2493Z" fill="white"/>
<path d="M59.2435 102.111V117.878H57.7939V114.495C57.2702 115.602 56.494 116.463 55.4671 117.078C54.4403 117.693 53.232 118 51.8423 118C49.7885 118 48.1762 117.426 47.0091 116.278C45.8401 115.129 45.2565 113.478 45.2565 111.323V102.111H46.7678V111.204C46.7678 112.975 47.2223 114.325 48.1276 115.251C49.0329 116.177 50.3123 116.64 51.9638 116.64C53.7351 116.64 55.1417 116.087 56.1797 114.98C57.2159 113.872 57.7341 112.382 57.7341 110.508V102.111H59.2454H59.2435Z" fill="white"/>
<path d="M89.8939 103.712C91.0106 104.86 91.5698 106.511 91.5698 108.666V117.88H90.0585V108.787C90.0585 107.016 89.6246 105.666 88.7586 104.74C87.8926 103.815 86.6843 103.351 85.1337 103.351C83.3625 103.351 81.9559 103.904 80.9197 105.011C79.8816 106.119 79.3635 107.609 79.3635 109.481V117.88H77.8522V108.787C77.8522 107.016 77.4183 105.666 76.5523 104.74C75.6863 103.815 74.478 103.351 72.9274 103.351C71.1543 103.351 69.7496 103.904 68.7134 105.011C67.6753 106.119 67.1572 107.609 67.1572 109.481V117.88H65.6459V102.113H67.0955V105.496C67.6192 104.389 68.3992 103.528 69.4372 102.913C70.4734 102.3 71.7079 101.993 73.1388 101.993C74.5696 101.993 75.7835 102.315 76.7786 102.96C77.7755 103.605 78.4863 104.551 78.909 105.801C79.4327 104.632 80.2538 103.706 81.3705 103.022C82.489 102.337 83.7927 101.995 85.2834 101.995C87.2361 101.995 88.7717 102.569 89.8902 103.717L89.8939 103.712Z" fill="white"/>
<path d="M122.039 103.712C123.156 104.86 123.715 106.511 123.715 108.666V117.88H122.203V108.787C122.203 107.016 121.77 105.666 120.904 104.74C120.038 103.815 118.829 103.351 117.279 103.351C115.507 103.351 114.101 103.904 113.065 105.011C112.027 106.119 111.508 107.609 111.508 109.481V117.88H109.997V108.787C109.997 107.016 109.563 105.666 108.697 104.74C107.831 103.815 106.623 103.351 105.072 103.351C103.299 103.351 101.895 103.904 100.858 105.011C99.8202 106.119 99.3021 107.609 99.3021 109.481V117.88H97.7908V102.113H99.2404V105.496C99.7641 104.389 100.544 103.528 101.582 102.913C102.618 102.3 103.853 101.993 105.284 101.993C106.715 101.993 107.928 102.315 108.924 102.96C109.92 103.605 110.631 104.551 111.054 105.801C111.578 104.632 112.399 103.706 113.515 103.022C114.634 102.337 115.938 101.995 117.428 101.995C119.381 101.995 120.917 102.569 122.035 103.717L122.039 103.712Z" fill="white"/>
<path d="M143.292 110.357H129.728C129.769 111.585 130.082 112.677 130.665 113.635C131.249 114.592 132.04 115.333 133.037 115.855C134.034 116.38 135.156 116.64 136.405 116.64C137.432 116.64 138.384 116.455 139.26 116.081C140.137 115.709 140.866 115.159 141.45 114.435L142.327 115.432C141.643 116.259 140.782 116.893 139.744 117.336C138.708 117.779 137.584 118.002 136.376 118.002C134.804 118.002 133.405 117.66 132.176 116.975C130.948 116.291 129.986 115.344 129.292 114.134C128.598 112.926 128.25 111.548 128.25 109.996C128.25 108.443 128.578 107.091 129.232 105.872C129.887 104.654 130.789 103.702 131.935 103.016C133.084 102.332 134.372 101.989 135.803 101.989C137.234 101.989 138.517 102.328 139.654 103.001C140.792 103.676 141.689 104.617 142.342 105.825C142.997 107.033 143.324 108.402 143.324 109.934L143.294 110.357H143.292ZM132.809 104.058C131.922 104.551 131.211 105.247 130.678 106.143C130.145 107.039 129.837 108.051 129.758 109.178H141.843C141.783 108.051 141.48 107.043 140.938 106.158C140.393 105.271 139.679 104.578 138.792 104.073C137.906 103.57 136.909 103.317 135.801 103.317C134.694 103.317 133.695 103.564 132.811 104.058H132.809Z" fill="white"/>
<path d="M151.72 102.909C152.747 102.296 153.995 101.989 155.467 101.989V103.47L155.104 103.441C153.351 103.441 151.982 103.99 150.995 105.086C150.007 106.184 149.515 107.71 149.515 109.663V117.878H148.004V102.111H149.453V105.554C149.936 104.406 150.692 103.525 151.719 102.909H151.72Z" fill="white"/>
<path d="M160.15 117.426C159.002 117.044 158.106 116.56 157.463 115.976L158.157 114.768C158.802 115.313 159.632 115.765 160.648 116.126C161.665 116.489 162.728 116.67 163.835 116.67C165.425 116.67 166.6 116.408 167.355 115.885C168.111 115.361 168.489 114.636 168.489 113.71C168.489 113.044 168.281 112.522 167.87 112.139C167.456 111.757 166.948 111.473 166.343 111.293C165.739 111.112 164.903 110.921 163.837 110.719C162.588 110.499 161.581 110.256 160.816 109.996C160.051 109.734 159.397 109.311 158.852 108.726C158.308 108.142 158.037 107.336 158.037 106.309C158.037 105.062 158.555 104.03 159.593 103.214C160.629 102.399 162.105 101.991 164.02 101.991C165.027 101.991 166.024 102.133 167.011 102.414C167.999 102.696 168.805 103.068 169.428 103.53L168.734 104.738C168.088 104.275 167.353 103.923 166.529 103.682C165.702 103.441 164.856 103.319 163.99 103.319C162.52 103.319 161.413 103.59 160.669 104.134C159.922 104.679 159.55 105.393 159.55 106.279C159.55 106.985 159.761 107.533 160.184 107.925C160.609 108.318 161.127 108.61 161.74 108.801C162.354 108.993 163.216 109.199 164.323 109.42C165.552 109.642 166.544 109.878 167.299 110.13C168.055 110.383 168.694 110.79 169.218 111.353C169.742 111.918 170.004 112.692 170.004 113.68C170.004 114.989 169.459 116.036 168.373 116.822C167.284 117.607 165.754 118 163.781 118C162.511 118 161.304 117.809 160.156 117.426H160.15Z" fill="white"/>
</g>
<defs>
<linearGradient id="paint0_linear_1_3" x1="67.3517" y1="4.01344" x2="109.023" y2="4.01344" gradientUnits="userSpaceOnUse">
<stop stop-color="#F9BB3D"/>
<stop offset="1" stop-color="#EA4D48"/>
</linearGradient>
<linearGradient id="paint1_linear_1_3" x1="67.3873" y1="76.1282" x2="109.06" y2="76.1282" gradientUnits="userSpaceOnUse">
<stop stop-color="#F9BB3D"/>
<stop offset="1" stop-color="#EA4D48"/>
</linearGradient>
<linearGradient id="paint2_linear_1_3" x1="46.1655" y1="23.9329" x2="67.3517" y2="23.9329" gradientUnits="userSpaceOnUse">
<stop stop-color="#EA4D48"/>
<stop offset="1" stop-color="#F9BB3D"/>
</linearGradient>
<linearGradient id="paint3_linear_1_3" x1="109.023" y1="22.0178" x2="130.065" y2="22.0178" gradientUnits="userSpaceOnUse">
<stop stop-color="#EA4D48"/>
<stop offset="1" stop-color="#F9BB3D"/>
</linearGradient>
<linearGradient id="paint4_linear_1_3" x1="46.2385" y1="59.9192" x2="67.2806" y2="59.9192" gradientUnits="userSpaceOnUse">
<stop stop-color="#EA4D48"/>
<stop offset="1" stop-color="#F9BB3D"/>
</linearGradient>
<linearGradient id="paint5_linear_1_3" x1="109.06" y1="58.0752" x2="130.022" y2="58.0752" gradientUnits="userSpaceOnUse">
<stop stop-color="#EA4D48"/>
<stop offset="1" stop-color="#F9BB3D"/>
</linearGradient>
<clipPath id="clip0_1_3">
<rect width="170" height="118" fill="white"/>
</clipPath>
</defs>
</svg>
